<svg xmlns="http://www.w3.org/2000/svg" viewBox="0 0 293 724"><g fill="none" fill-rule="evenodd" transform="translate(.535 .32)"><path fill="#0096E8" fill-rule="nonzero" d="M221.51 135.01l.55 102.15-31.5 12.78 7.77-89.81z"/><path fill="#71767C" fill-rule="nonzero" d="M220.7 240.4c.29.11.63.3.92.41l27.62 108.36 9.48 36.33a15.74 15.74 0 0 1-13.05-3.5c-4.23-3.56-9.36-8.26-10.28-10.37-6.89-15.72-6.42-34.1-6.42-34.1l-33.27-68.8-.61-1.11a19 19 0 0 1-2.19-10c.62-12.89 14.26-23.36 27.8-17.26v.04zM193.76 87.19a40.83 40.83 0 0 1-10.46-2.81 69.42 69.42 0 0 0 9.79 11.06c.13-1.47.26-2.94.36-4.27.1-1.33.22-2.73.31-4v.02z"/><path fill="#A4ABB3" fill-rule="nonzero" d="M192.45 103.86c-.61 8.33-1 14.84-1 14.84l-42.17-8 5.45-14.08 9.2-24 4.415-11.88c-2.06-4.13-6.789-12.134-4.915-19.71a6.63 6.63 0 0 1 2.45-4.25c5.67-4.23 10.4 7.07 12.37 12.83 12.48 1.63 38.48 3 47.37-11.86l1 2.35a132.17 132.17 0 0 1-5.86 19.38 74.51 74.51 0 0 1-3.14 7.11C210.67 80.84 206 87.43 206 87.43a50.3 50.3 0 0 1-8.94.17c-1 0-2.13-.18-3.23-.32a38.1 38.1 0 0 1-10.45-2.88 66.5 66.5 0 0 0 9.79 11.06c-.26 2.94-.493 5.74-.7 8.4h-.02z"/><path fill="#D1E4FF" fill-rule="nonzero" d="M158.77 32.08a43.24 43.24 0 0 1 2.93-7.15C170.59 4.55 184.6-5.8 212 3.36 223.25 7.15 228 15 229.53 23.3c.06.09 0 .16.12.18 6 6 10.59 17.87 2.29 28a35.12 35.12 0 0 1-36.19 53.41c-1.08-.21-2.15-.48-3.29-.78.21-2.65.37-5.46.61-8.33.12-1.4.25-2.87.37-4.27.12-1.4.25-3 .36-4.28 1.09.14 2.26.26 3.3.31a52.17 52.17 0 0 0 8.92-.15s4.42-6.37 11.48-20.56c1.13-2.4 2.19-4.82 3.15-7.1a122.74 122.74 0 0 0 5.85-19.39l-1-2.35c-8.81 14.86-34.81 13.5-47.36 11.86-2-5.76-6.71-17.06-12.38-12.82a6.62 6.62 0 0 0-2.45 4.24c-1.08 6.08 3.14 15.34 5.2 19.47l-4.63 12.14-9.2 24a35.06 35.06 0 0 1 4.1-64.83l-.01.03z"/><path fill="#00629A" d="M195.24 108.43l11.91 4.9c6.15 5.66 17.61 11.13 15.18 22.44l-12.91 46-19.35-54.67 5.17-18.67z"/><path fill="#0096E8" fill-rule="nonzero" d="M221.15 236.75l.91.41 23.09 80.64-26.67 7.4-25.15-59.79-.61-1.11a19 19 0 0 1-2.19-10c.62-12.88 17.09-23.75 30.62-17.58v.03z"/><path fill="#00629A" d="M212.11 136.84l-1.56 50s-10.28 78.8-30.11 93.13l-67.82-.44L148.86 144c4.31-18.3 14.72-32.78 34.26-37.19"/><path fill="#9DC9FF" fill-rule="nonzero" d="M125.9 111c1.06-.29 22.37-10.13 22.37-10.13l9.66-12.55 37.75 10.18v6.47l11.44 8.4s12.62 50.92 4 79.21c-10.67 35.1-43.53 72-43.53 72l-87-.07 42.89-153.88 2.42.37z"/><path fill="#001D33" fill-rule="nonzero" d="M147.33 264.42h20.51l7.16 15.65c.52 3.46 6 36.46 6 39.91l-6.1 176.23s-20.36 193.35-20.51 193.35h-13.16l-.07.37a2.12 2.12 0 0 1-.3-.51c-12.49-46.89-29.76-102.89-6.86-187.33 7.27-26.9-4.41-71-16-116.41 6.91-26.6 14-51.22 19.92-65.55 9.33-22.64 9.33-55.71 9.33-55.71h.08z"/><path fill="#003253" fill-rule="nonzero" d="M29.35 689.49c5.15-166.9-10.58-157.71 28.81-227.75 4.85-8.6 5.44-21.24 5-36.3C61 341.29 46.7 311.75 83 264.42h64.45s.08 33.07-9.26 55.78c-5.87 14.33-13 38.95-19.91 65.55-14.11 54.31-27.41 116.78-27.41 116.78l-47.7 187.1h-.29l-13.53-.14z"/><path fill="#007BC0" fill-rule="nonzero" d="M154.52 689.56l64.31 22.19-.15.22a27.56 27.56 0 0 1-21.24 10h-62.61l6.54-32 .07-.37 13.08-.04zM1.32 710.34L29 689.47l14.22.14L45.71 722H7.42A7.4 7.4 0 0 1 0 714.6a7.293 7.293 0 0 1 1.32-4.26z"/><path fill="#00629A" fill-rule="nonzero" d="M154.31 175.94c-2.39-48.17-2.07-71.89.11-83.1-8.43 10.29-29.92 15.62-35 16.76-19.57 4.49-54.23 104.28-63 170.54l70.67.45a273.36 273.36 0 0 1 15.27-48.19c7.48-17.91 12.91-37.07 11.95-56.46z"/><path fill="#0096E8" fill-rule="nonzero" d="M16.71 169.33l89.95-54.26c5.9-3.66 11.52-5.84 16.8-6.51 11.66-1.47 20.48 10.15 16.25 21.12-3.78 9.81-10.33 18.73-19.93 27.6-14.24 13.18-36.12 22.41-55.08 29.83-15.52-15.58-32-24.54-48-17.78h.01z"/><path fill="#2E3033" fill-rule="nonzero" d="M167.62 298.6l-1.83-3.15a14.68 14.68 0 0 0-12.73-7.35H135a7.34 7.34 0 0 0-6.62 10.5h39.24z"/><path fill="#71767C" fill-rule="nonzero" d="M132.47 313.73c-5.54-.68-14.11-13.08-14.11-13.08l22.43-20.24L160.36 312s-22.36 2.42-27.89 1.73z"/><path fill="#A4ABB3" fill-rule="nonzero" d="M16.49 169.74c16-6.71 32.52 2.25 48 17.78 22.07 22.23 42.16 57.91 55.79 80.55 1 1.59 20.53 12.34 20.53 12.34l-22.43 20.24L106.13 281S5.44 177 6.13 176.42a35.89 35.89 0 0 1 10.4-6.72l-.04.04z"/><path fill="#56B0FF" fill-rule="nonzero" d="M16.71 169.33c16-6.71 32.52 2.26 48 17.78 22.07 22.24 42.15 57.91 55.78 80.55l-22 11.93S5.39 176.9 6 176.3a36.77 36.77 0 0 1 10.67-7l.04.03z"/><path fill="#8A9097" fill-rule="nonzero" d="M263.74 457.1l25.12-25.1-48-25.07-46.31-80.21a14.7 14.7 0 0 0-12.73-7.35h-55.45l-22.76-22.97-25.06 25.06-.12.13-.27.27a7.31 7.31 0 0 0-.83 8.49L147.58 452a14.7 14.7 0 0 0 12.73 7.35h98.13a7.242 7.242 0 0 0 5-1.93l.19-.2.11-.12z"/><path fill="#C1C7CC" fill-rule="nonzero" d="M207 294.19h-98.13a7.338 7.338 0 0 0-6.36 11l70.22 121.64a14.7 14.7 0 0 0 12.73 7.35h98.13a7.35 7.35 0 0 0 6.37-11l-70.23-121.64a14.7 14.7 0 0 0-12.73-7.35z"/><path fill="#8A9097" fill-rule="nonzero" d="M227.29 354.34h-61.38a7.35 7.35 0 0 0-6.36 11L191.32 417a14.69 14.69 0 0 0 12.73 7.35h61.38a7.35 7.35 0 0 0 6.36-11L240 361.69a14.68 14.68 0 0 0-12.71-7.35z"/><path fill="#2E3033" fill-rule="nonzero" d="M139.35 408.33a5.5 5.5 0 0 1-4.78-2.76l-21.21-36.74a5.51 5.51 0 1 1 9.54-5.52l21.22 36.75a5.52 5.52 0 0 1-4.77 8.27z"/><path fill="#595E62" fill-rule="nonzero" d="M194.12 446.14l1.09 22.55 9.51.02-.85-22.54z"/><ellipse cx="204.171" cy="457.445" fill="#595E62" fill-rule="nonzero" rx="9.13" ry="11.29" transform="rotate(-.74 204.171 457.445)"/><ellipse cx="194.262" cy="457.443" fill="#2E3033" fill-rule="nonzero" rx="9.13" ry="11.29" transform="rotate(-.74 194.262 457.443)"/><path fill="#595E62" fill-rule="nonzero" d="M247.23 446.53l1.08 22.55 9.51.03-.85-22.55z"/><ellipse cx="257.272" cy="457.839" fill="#595E62" fill-rule="nonzero" rx="9.13" ry="11.29" transform="rotate(-.74 257.272 457.839)"/><ellipse cx="247.363" cy="457.837" fill="#2E3033" fill-rule="nonzero" rx="9.13" ry="11.29" transform="rotate(-.74 247.363 457.837)"/></g></svg>