<svg xmlns="http://www.w3.org/2000/svg" viewBox="0 0 514 594"><g fill="none" fill-rule="evenodd"><path fill="#006C3A" fill-rule="nonzero" d="M407.19 81.23c-3.808 0-7.385.88-10.73.88-.29 2.65-.64 5.57-.93 8.36 5.016-2.37 8.013-4.62 11.66-9.24z"/><path fill="#B8EFC9" fill-rule="nonzero" d="M457.13 76.43c0-.44.08-1 .08-1.39-.004-12.358-9.2-22.783-21.46-24.33a42.74 42.74 0 0 0-.3-22.56c-6.69-25.57-29.17-30.28-43.21-25.57-7.06 2.35-21.31 9.92-19.7 24.62-7.103 10.007-5.618 23.742 3.46 32a15.3 15.3 0 0 0 2.5 1.83c-.22-.88-.52-1.76-.74-2.71a117.52 117.52 0 0 1-3.67-25.73c3.67 6.99 12.757 13.31 45.78 13.23.15 0 .3 0 .37.08 2.35-4.19 7.28-11.17 11.68-6.32 4.78 5.21-2.79 16.53-6.46 21.38a2.09 2.09 0 0 0-.37.52l4.26 23.59 4.93 27.19h-12.72c3.136 14.758 16.683 24.937 31.73 23.842 15.049-1.094 26.98-13.126 27.948-28.182.968-15.057-9.324-28.518-24.108-31.53v.04z"/><path fill="#43464A" d="M70.92 592.19l9.85-191.74h86.05l9.85 191.74h12.42l-16.24-313.8h-12.42l5.66 109.5H81.5l5.66-109.5H74.74L58.5 592.19z"/><path fill="#00884A" fill-rule="nonzero" d="M108 548.96l.07.22a26.58 26.58 0 0 0 14.48 17.49l54.82 25.65 7.5-31.16-14.41-6.76-62.46-5.44z"/><path fill="#D0D4D8" d="M493.56 356.43h-84.14l-84.37-.29a21.2 21.2 0 0 0 21.24 21.24H350l-11.8 213.78h13.45l11.83-213.78h51.08v.51l40.71-.14 11.84 213.93h13.59l-11.9-214.3h3.89c11.546-.028 20.887-9.404 20.87-20.95z"/><path fill="#00884A" fill-rule="nonzero" d="M302.63 540.6l-16.09 5-41 43.65.22.07a26.27 26.27 0 0 0 22.64-.58l48.94-25.5-14.71-22.64z"/><path fill="#5EBD82" fill-rule="nonzero" d="M429.33 85.11l-4.26-23.59a3.34 3.34 0 0 0 .37-.52c3.67-4.85 11.24-16.17 6.46-21.38-4.41-4.78-9.33 2.13-11.68 6.32-.15 0-.22-.08-.37-.08-33.07 0-42.77-7.57-45.78-13.23a121.15 121.15 0 0 0 3.67 25.73c.22 1 .52 1.83.74 2.71 3.6 12.87 6.46 19 6.46 19a47.26 47.26 0 0 0 11.47 2.06c3.6.22 7.214-.08 10.73-.89a58.74 58.74 0 0 1-11.61 9.19c-1.33 11.17-2.58 21.75-2.58 21.75h41.23l-4.85-27.11v.04z"/><path fill="#00210E" fill-rule="nonzero" d="M439 275.73l-60.63-7.87s-1.17-3.45-3.23-9.26c-38.14 24.62-96.4 28.81-136.67 55.86l2.13 10.14c21.31-7.5 66.513-20.175 104.853-26.495 41.15-6.69 77.237-17.965 93.547-22.375zM258.8 361.2c0 15.262 0 30.952-.44 48.43l28.23 136 16.23-4.72c1.77-57.76 13.17-134.47-4.4-184-18.64-2.293-31.87-.77-39.67 4.29h.05z"/><path fill="#00381B" fill-rule="nonzero" d="M439.14 275.61c-16.31 4.41-52.17 13.53-93.33 20.21-38.36 6.32-83.63 21.17-104.94 28.66-7.72 2.72-12.28 4.41-12.28 4.41l-58.05 225.62 14.4 6.76c29.69-48.5 64.31-99.95 73.64-151.76 2.86-16.16 3.38-32.33.44-48.43 7.86-3.82 21.24-4.55 39.61-4.11 24 .51 56.44 2.94 96.64 2.94 64.89 0 79.89-35 66.8-83.05l-1-.12-21.93-1.13zm-87-82.82l-19.54 64.55 37.43-.23s.71-1.78 2.69-6.26c-4.7-13.45-11.61-33.07-18.37-51.3-.81-2.35-1.62-4.56-2.21-6.76zm26-77.53a26.64 26.64 0 0 0-20.43 22l-2.06 21.83c3-4.63 7-9.26 11.61-14.77l1.1-1.33c3.24-3.89 6-7.49 8.53-10.73a147 147 0 0 0 13.11-20.3l-11.83 3.31-.03-.01z"/><path fill="#00381B" fill-rule="nonzero" d="M456.89 112.37c-4.7-.88-15.87-5.66-19.18-9-4.26-4.48-4.34-5.8-4.34-5.8l-39.53 2.05s.14 3.6-4.19 12.28a131.68 131.68 0 0 1-13.08 20.28c-2.5 3.31-5.3 6.91-8.53 10.73l-1.1 1.32a172.2 172.2 0 0 0-11.61 14.73c-6 9.26-8.09 18.3-3.53 33.81.59 2.13 1.4 4.41 2.28 6.83 6.68 18.23 13.59 37.85 18.37 51.3.96 2.793 1.843 5.293 2.65 7.5 2 5.73 3.23 9.26 3.23 9.26l60.67 7.86 22.78 2.94.15-1.76L472 147.43c1.17-17.71 2.35-31.68-15.07-35.06h-.04z"/><path fill="#00210E" d="M433.67 273.76l27.09 4.56.58-.42.32-.28 10.15-130.12c1.4-17.71 2.57-31.6-14.85-35.06l-23.29 161.32z"/><path fill="#71767C" fill-rule="nonzero" d="M262.66 182.17l36.45 75.4h6.17l-36.45-75.4a9.172 9.172 0 0 0-8.38-5.22h-6.17a9.302 9.302 0 0 1 8.38 5.22z"/><path fill="#43464A" fill-rule="nonzero" d="M305.21 257.44h-6.1l-36.45-75.4a9.181 9.181 0 0 0-8.38-5.22H145.66a9.223 9.223 0 0 0-9.26 9.26 8.614 8.614 0 0 0 .95 4l36.82 76.29h215.62a6.9 6.9 0 0 0 6.91-6.91v-2.5l-91.49.44v.04z"/><path fill="#8A9097" fill-rule="nonzero" d="M0 265.82h273.53v12.57H0z"/><path fill="#43464A" fill-rule="nonzero" d="M46.08 222.83H75.4v43.5H46.08z"/><path fill="#C1C7CC" fill-rule="nonzero" d="M273.46 265.82v12.57h55l-16.24 313.8h12.57l9.92-191.74h87.67l9.92 191.74h12.42l-16.24-313.8h51.37v-12.57H273.46zm62 122.07l5.66-109.5h75l5.66 109.5h-86.32z"/><path fill="#00512A" fill-rule="nonzero" d="M513.92 231.06L480 134.71c-4.48-15.36-12.35-21.6-24.91-22.71-10.22 10.66-12.42 34.47-11.39 45.57 2.57 28.81 20.13 59.67 28.58 73 21.06.05 38.33.27 41.64.49z"/><path fill="#5EBD82" fill-rule="nonzero" d="M513.36 230.9c-3.23-.3-20.58-.44-41.52-.59-37.56-.22-86.57-.3-86.57-.3l-31.75-5.21 1 31.89 8.45-.07s20-8.67 21.76-8.31c45.88 10.95 127.01 36.65 129.27-17.41 0 .07-.22.07-.59 0h-.05z"/><path fill="#006C3A" fill-rule="nonzero" d="M327.58 237.88s-1.25 5.07 5.36 13.23 21.53 5.58 21.53 5.58l-1-31.89-25.89 13.08z"/></g></svg>