<svg xmlns="http://www.w3.org/2000/svg" viewBox="0 0 701 737"><g fill="none" fill-rule="evenodd"><path fill="#5EBD82" fill-rule="nonzero" d="M634.601 6.28H633.261c-.19 0-.38 0-.58.07l-.41.08-.5.19-.39.11-.53.16c-6.37 2.14-11.56 9.53-13.75 19.26v.21c-.19.86-.36 1.74-.5 2.63-.12.77-.22 1.56-.3 2.35-.13 1.15-.21 2.32-.25 3.51v1.71c0 16.74 8.37 30.3 18.69 30.31l-38.03 269.16h56.58V36.62c0-16.77-8.37-30.34-18.69-30.34z"/><path fill="#595E62" fill-rule="nonzero" d="M618.601 162.47l80.64 572.82h-26.84l-80.64-572.82z"/><path fill="#595E62" fill-rule="nonzero" d="M558.34 544.44h98.06v15.51h-98.06z"/><path fill="#C1C7CC" fill-rule="nonzero" d="M595.561 162.47l-80.64 572.82h26.83l80.65-572.82z"/><path fill="#595E62" fill-rule="nonzero" d="M379.541 162.47l80.64 572.82h-26.84l-80.64-572.82z"/><path fill="#595E62" fill-rule="nonzero" d="M319.28 544.44h98.06v15.51h-98.06z"/><path fill="#C1C7CC" fill-rule="nonzero" d="M356.501 162.47l-80.64 572.82h26.83l80.65-572.82z"/><path fill="#B8EFC9" fill-rule="nonzero" d="M588.401 395.04h-302.64l46.19-328.14h302.65z"/><path fill="#8A9097" fill-rule="nonzero" d="M265.891 395.04h345.27c0 14.989-12.15 27.14-27.14 27.14h-291c-14.989 0-27.14-12.151-27.14-27.14h.01z"/><path fill="#C1C7CC" fill-rule="nonzero" d="M656.401 67.09a21.22 21.22 0 0 1-.21 3.07l-45.74 324.88h-22l46.2-328.14 3-21.4c10.697 1.496 18.686 10.6 18.78 21.4a1.21 1.21 0 0 1-.03.19z"/><path fill="#8A9097" fill-rule="nonzero" d="M637.611 45.5h-307.19l21.38 21.38h282.8z"/><path fill="#86D7A2" fill-rule="nonzero" d="M615.901 36.62c0-16.74 8.37-30.31 18.7-30.31h-302.73c-10.32 0-18.69 13.57-18.69 30.31s8.37 30.31 18.69 30.31h302.73c-10.33-.03-18.7-13.6-18.7-30.31z"/><path fill="#8A9097" fill-rule="nonzero" d="M656.391 66.9h-21.79l3-21.4c10.701 1.491 18.695 10.596 18.79 21.4z"/><path fill="#595E62" fill-rule="nonzero" d="M381.52 381.98h63.05v13.06h-63.05z"/><path fill="#00884A" fill-rule="nonzero" d="M444.58 381.98h23.52v13.06h-23.52z"/><path fill="#00210E" fill-rule="nonzero" d="M425.951 222.08l-9 63.98h-23.75l9.01-63.98zM476.501 198.97l-12.26 87.09h-23.75l12.26-87.09zM527.161 175.87l-15.51 110.19h-23.75l15.51-110.19z"/><path fill="#595E62" fill-rule="nonzero" d="M193.001 204.62c.26-.29.46-.61.73-.9l125.45-1.82 40-8.34 2 7.46-20.22 6s2.36 17 2.37 16.94c-30 6.72-42.22-3-42.22-3l-83.74 18.29-1.39.35a21.89 21.89 0 0 1-11.39-.16c-14-4-21.89-21.65-11.64-34.85l.05.03z"/><path fill="#595E62" fill-rule="nonzero" d="M335.871 192.17l4.41 5.37-17.38 13.39-24.42-8.09z"/><path fill="#5EBD82" fill-rule="nonzero" d="M144.071 164.44l33.9-32.3 45.64 71.11-27.61 38.75z"/><path fill="#71767C" fill-rule="nonzero" d="M326.691 208.01s1.47 9.47 6 12.84a13.81 13.81 0 0 0 10.7 3.12l-2.37-16.94-14.33.98zM98.281 51.32a3.12 3.12 0 0 1 0-.81 20.77 20.77 0 0 1-.66-2l.66 2.79v.02zm5.95 27.63l.08-.22a1.39 1.39 0 0 1-.37.22h.29zM132.831 72.2a15.6 15.6 0 0 0-7.22 4.17l-2.49-8.13s-.76-.22-4-1.47-5.35-17.34-6.69-24.47c-1.39-7.87-1.06-9.63-1.06-9.63s14.84-6 19.1-5.38c4.26.62 14.3 7.2 19.3 7.2a12.55 12.55 0 0 0 5.58-1.39c.3 1.1.52 2.28.74 3.52a118.25 118.25 0 0 1-1.69 19 86.26 86.26 0 0 1-2 9l-.44 1.55-4 10.47c-4.77-6.1-10.17-5.6-14.14-4.64l-.99.2z"/><path fill="#C1C7CC" fill-rule="nonzero" d="M104.601 77.12l-5.14-21.09a64.47 64.47 0 0 0 6.68 12.49l-1.54 8.6z"/><path fill="#71767C" fill-rule="nonzero" d="M104.311 78.95l.29-1.61 1.54-8.6a62.48 62.48 0 0 1-6.68-12.49 21.56 21.56 0 0 1-1.18-4.78c0-.29-.07-.59-.07-.81a6.19 6.19 0 0 1 1.39-4.34c2.13-2.35 4.56-1.47 6.76.67 3.9 3.67 7.13 11 7.13 11l-3.82 13.39c-.07.3-.07.67-.15 1-.127.995-.15 2-.07 3a15.21 15.21 0 0 0 7.13 11.84c6 3.38 8.67 3.74 12.64 6.24a41.86 41.86 0 0 1 6.17 5.51c1.11 9.78 2.21 18.3 2.21 18.3h-40.27l6.9-38.07.08-.22v-.03z"/><path fill="#D0D4D8" fill-rule="nonzero" d="M217.031 725.62l-53.94-21.24h-36.82l-6.32 30.94h76.82a26 26 0 0 0 20.13-9.48l.15-.22h-.02zm-206.58 2.47a7.13 7.13 0 0 0 7.13 7.13h51.37l-4.05-30.94h-27l-26.28 19.84a6.47 6.47 0 0 0-1.17 3.97z"/><path fill="#00381B" fill-rule="nonzero" d="M18.471 705.02c0-153.4 43.58-233.7 43.21-247.81-2.06-77.16-4-97.08 9.26-147l.15 1.25h79.202c-.44 9.77-.073 23.219-9.656 49.024-9.584 25.806-15.316 43.396-22.586 72.976-11.1 45.71-20.43 92.15-20.43 92.15l-30.79 179.41h-48.36z"/><path fill="#00210E" fill-rule="nonzero" d="M177.581 311.48l-.3 11.76-4.92 190-7.06 191.78h-55c1.76-121 2.65-94.51 14.33-175.79 4.85-33.51.11-66.03-6.58-96.23 7.21-29.62 15.18-58.39 21.79-74.45 6.54-15.95 8.16-37.26 8.6-47l29.14-.07z"/><path fill="#86D7A2" fill-rule="nonzero" d="M54.991 125.84l16 185 26 .29-10.22-147.37-31.11-38.14 43.36-25.28h39.53l30.28 18.28a45.37 45.37 0 0 1 21.75 42.48l-2.81 19.52-9.92 68.35-.59 29 .3 33.51H71.091l-.15-1.54-16-184.1h.05z"/><path fill="#5EBD82" fill-rule="nonzero" d="M97.401 311.48h-26.38l-16-185.42v-.14l.07.14 33.83 22.37z"/><path fill="#71767C" d="M135.171 99.24h-34l12.56 10.07 12.57 5.36 9.7-5.29 1.1-7.28z"/><path fill="#00210E" d="M127.681 108.06l-12.28 8.89 8.9 11.46-5.07 11.4 3.08 125.66 12.64 16.47 14-19-10.18-123.13-6.9-11.4 6.39-10.21z"/><path fill="#B8EFC9" d="M110.331 124.45s12.94-9.78 17.35-16.32c.29-.44-9.63-1.18-17.2-6.25-8.38-5.58-8.82-8.52-8.82-8.52l-9.48 10.73s13.08 14.18 18.15 20.36z"/><path fill="#B8EFC9" d="M135.321 96.89c.07 6.68-7.64 11.17-7.64 11.17l13.3 16.31s3.09-9.18 3.09-15.28-8.75-12.2-8.75-12.2z"/><path fill="#C1C7CC" fill-rule="nonzero" d="M97.771 20.19c6.5-3.62 13.67-2.88 18.77-7.17s7.38-9.53 16-11.67c8.62-2.14 12.12.89 13.52 3 1.4 2.11 3.62 9.38 3.62 9.38s11.82-1.55 11.82 9.23a11.8 11.8 0 0 1-1.55 5.91c1.62 2.88 9.15 18.32-5.62 26.89a116.53 116.53 0 0 0 1.7-19.06c-.22-1.25-.44-2.43-.74-3.54a12.23 12.23 0 0 1-5.61 1.4c-5 0-15.14-6.5-19.43-7.24-4.29-.74-18.48 5.57-18.48 5.57s-.44 2 1 9.9c1.33 7.16 3.47 22.16 6.72 23.49a17 17 0 0 1 3.91 1.92l2.29 7.75a16 16 0 0 1 7.39-4.28c4-1 9.53-1.55 14.48 4.51l4.43-10s6.06 5.8 6.06 16.36c0 9.08-7.32 11-7.32 11a59.13 59.13 0 0 1-7.09 5.84 27 27 0 0 1-5.83 2.58s-1-1.18-2.44-2.73a35.44 35.44 0 0 0-6.2-5.54c-4-2.51-6.73-2.88-12.71-6.28a15.26 15.26 0 0 1-7.16-11.89c-.09-1-.066-2.006.07-3 .07-.29.07-.66.15-1l3.84-13.51s-3.25-7.39-7.09-11.08c-2.22-2.15-4.61-2.85-6.68-.61a6.85 6.85 0 0 0-1.37 4.6c-.22-.59-.59-1.56-.81-2.3-2.52-7.75-5.1-25.4.36-28.43z"/><path fill="#595E62" fill-rule="nonzero" d="M61.081 364.36l18.8 19.61-6.58 17.65-4.74-1.22 1-11.12-5.15-4.74z"/><path fill="#B8EFC9" fill-rule="nonzero" d="M.771 248.62l45-111c7.1-13.82 17-19 28.87-15.93 17.86 6.15 15.11 30.5 12 40.92-5.73 19.88-43.87 101.9-47.82 104.07-25.17 13.71-38.05-18.06-38.05-18.06z"/><path fill="#C1C7CC" fill-rule="nonzero" d="M19.248 391.115l63.683-15.49 3.087 12.69-63.684 15.49z"/><path fill="#00210E" fill-rule="nonzero" d="M82.92 375.633l22.854-5.558 3.087 12.69-22.854 5.559z"/><path fill="#71767C" fill-rule="nonzero" d="M53.021 298.2c5.29 22.13 7.06 47.33 8.06 66.16l10.59 27.45s-30.09 7.27-30.09 7.34c-4.81-7.66-6.48-30.53-6.48-30.53s-35.1-119.78-34.33-120a38 38 0 0 1 10.66-1.28c22.85.36 34.96 23.28 41.59 50.86z"/><path fill="#595E62" fill-rule="nonzero" d="M77.491 416.17s-12.13 2.33-19.5-.82c-9.4-4-15.71-15.51-16.44-16.24l30.12-7.3 5.82 24.36z"/></g></svg>