<svg xmlns="http://www.w3.org/2000/svg" viewBox="0 0 259 732"><g fill="none" fill-rule="evenodd"><path fill="#8A9097" fill-rule="nonzero" d="M128.626 90.79a59.76 59.76 0 0 0 10.94-8.67c-3.743.477-7.347.745-10.73 1-.29 2.57-.59 5.29-.81 8l.59-.29.01-.04z"/><path fill="#003253" fill-rule="nonzero" d="M106.616 31.35a.29.29 0 0 1 .07-.22c-.66.74-1 1.25-1 1.25s-2.43-6.54-1.62-12.27a3.82 3.82 0 0 0 .08-.95c-1.62 4.33-3.24 12.42 2.86 19.4a62.32 62.32 0 0 1-.36-7.2l-.03-.01z"/><path fill="#003253" fill-rule="nonzero" d="M164.726 18.17s0-5.73-9-13.08-18.9-2.42-27.16-3.3c-8.26-.88-17.42-3.31-24 0-6.17 3.08-.66 12.05-.73 17.85a4.39 4.39 0 0 1-.07 1c-.81 5.73 1.61 12.27 1.61 12.27s.606-.11 1.236-.85c1.69-2 4.764-6.13 7.114-7.3 3.31-1.62 4.92.8 13.89 3.3s18-4.11 18-4.11c-4.92 13.89 2.8 16.61 5.22 20.65.62 1.076 1.204 2.694 1.24 3.935 2.87-4.86 7.26-11.135 11.01-6.955 4.63 5.08-3.39 18-7.43 23.89l1.84 4c.22 0 16.04-27.78 17.07-37.41.81-7.49-9.84-13.89-9.84-13.89z"/><path fill="#A4ABB3" fill-rule="nonzero" d="M127.786 91.12c-1.25 11-2.57 21.53-2.57 21.53h40.49l-7.86-43.43-1.84-4c4.05-5.88 12.06-18.82 7.43-23.89-3.83-4.19-8.46 1.69-11.25 6.54a6.76 6.76 0 0 0-1-3.52c-2.42-4.12-10.14-6.76-5.21-20.65 0 0-9 6.54-18 4.11-9-2.43-10.66-4.92-13.89-3.31-3.09 1.16-7.37 6.89-7.44 7-.07.11-.06 2.94.31 7.29a113.16 113.16 0 0 0 3.38 21c3.9 14.4 7.13 21.31 7.13 21.31a49.7 49.7 0 0 0 11.28 2.02 35 35 0 0 0 10.73-1 59.39 59.39 0 0 1-11 8.68l-.74.29.05.03z"/><path fill="#8A9097" fill-rule="nonzero" d="M70.386 251.84c-.37.14-.74.22-1.11.36l-45.49 116.92-23.15 36.75 7.65 2.35a17.69 17.69 0 0 0 15-2.13c5.22-3.38 11.54-7.86 12.86-10.14 9.77-16.53 11.83-37 11.83-37l46.36-72.13.81-1.18a21.68 21.68 0 0 0 3.82-10.73c1.11-14.55-12.64-28.07-28.58-23.07z"/><path fill="#8A9097" fill-rule="nonzero" d="M.566 378.68l2.13 6.62 22.78-10.29 6.4-24.89z"/><path fill="#00629A" fill-rule="nonzero" d="M87.506 232.21l-9.94-68.42-14.56 89.81 24.43 7.42z"/><path fill="#C1C7CC" fill-rule="nonzero" d="M95.436 700.99l-53.79 19.7.14.22a26 26 0 0 0 20 9.41h76.21l-6-29.25c-12.64-.15-28.22.36-34.25 0h-2.31v-.08zm153.38 18.23l-25.58-19.33h-28.95l-2.35 30.43h51.07a7.08 7.08 0 0 0 5.81-11.1z"/><path fill="#001D33" fill-rule="nonzero" d="M111.566 300.78l48.87.37c0-.15-.07-.22-.07-.37-.07-.44-78.41 0-78.41 0l5.8 207.1 7.35 193.35h54.86c-1.77-121-2.65-96-14.41-177.26-4.85-33.51-.22-65.55 6.47-95.76-7.2-29.61-15.14-58.94-21.75-75-8.75-21.39-8.68-52.4-8.68-52.4l-.03-.03z"/><path fill="#003253" fill-rule="nonzero" d="M241.566 700.05c0-153.44-43.58-234.06-43.21-248.17 2-78.93 4.11-98-10.22-150.51l-27.78.59-48.8-.37s.13 30.08 5.94 52.37c5.46 20.94 14.41 47.16 21.6 76.7 11.11 45.64 23.24 90.08 23.24 90.08l30.72 179.31h48.51z"/><path fill="#007BC0" fill-rule="nonzero" d="M208.096 121.61l-33.53-19.55a105.08 105.08 0 0 0-28.36 23c-11.76 13.38-29.48 44.38-29.48 44.38s-6-17.92-7.56-28.72c-2.21-14.77-1.18-32.41-1-34l-13.16 7.94a45.2 45.2 0 0 0-21.7 42.46l12.72 87.82-5.22 62h85c4.083-35.275 6.802-61.845 8.158-79.71 1.355-17.866 2.36-40.362 3.012-67.49l31.09-38.14.03.01z"/><path fill="#D1E4FF" fill-rule="nonzero" d="M109.006 140.91c1.62 10.81 7.87 28.74 7.87 28.74s17.41-31 29.17-44.39c12.79-14.48 25.87-21.75 28.37-23l.27-.16-10.71-6.6-3.16-9.85-34.9 4.92-4.27 7.43-13.73 8.83s-1.11 19.31 1.09 34.08z"/><path fill="#00629A" fill-rule="nonzero" d="M208.166 121.68v-.07l-.07.07-31.16 38.15-11.17 147.12h31.89l10.51-184.83z"/><path fill="#001D33" d="M130.996 95.23l-15.5-4.49v17.94l15.5-4.49 15.51 4.49V90.74z"/><path d="M120.636 180.04a3.6 3.6 0 1 1-7.2-.02 3.6 3.6 0 0 1 7.2.02z"/><path fill="#C1C7CC" fill-rule="nonzero" d="M152.36 424.166l-24.041-75.515L233.392 315.2l24.042 75.515z"/><path fill="#FFF" fill-rule="nonzero" d="M156.621 395.151l-8.048-25.28 14.503-4.617 8.048 25.28z"/><path fill="#A4ABB3" fill-rule="nonzero" d="M189.696 264.86c-.17 26.46-.2 62.18-.18 84.59v21l-11.19 53.52 33.5-9.47c2.72-9.42-2.59-41.11-2.09-42.95 8.43-32.18 25.67-85.74 19.34-117l-39.38 10.31z"/><path fill="#D1E4FF" fill-rule="nonzero" d="M218.716 144.83c-4.52-18.63-10.27-27.94-22.6-29.33-16.23-1.83-24 26.69-21.78 47 1 8.72 2 18 3.14 27.43 4.39 37.44 9.22 75.65 9.22 75.65l3-.47 40.21-6.5 11.53-1.84-22.72-111.94z"/><path fill="#A4ABB3" fill-rule="nonzero" d="M189.566 370.7l-24.1 29.87 3.72 6.15 14.56-9.22z"/><path fill="#71767C" fill-rule="nonzero" d="M178.336 423.99l-6.06-6.19 7.88-2.51z"/></g></svg>