<svg xmlns="http://www.w3.org/2000/svg" data-name="Ebene 1" viewBox="0 0 662.598 1080"><path fill="#eff1f2" d="M253.815 144.083h-42.063l-.703 73.938H40.451V40.019h170.598l.703 62.21.148-.489 41.915 42.343z"/><path fill="#003b6a" d="M120.618 116.126c0 8.14-4.435 13.588-11.058 13.588-6.555 0-11.06-5.448-11.06-13.45 0-8.275 4.439-13.725 11.2-13.725 6.483 0 10.918 5.518 10.918 13.587zm-16.928.138c0 6 1.912 8.968 5.8 8.968 4.027 0 5.939-2.9 5.939-9.035 0-6.071-1.982-9.174-5.8-9.174-4.027 0-5.94 2.965-5.94 9.241zm32.7-13.309h4.71l-26.83 49.311h-4.777l26.9-49.311zm15.7 36.139c0 8.137-4.439 13.585-11.06 13.585-6.554 0-11.061-5.448-11.061-13.448 0-8.276 4.438-13.724 11.2-13.724 6.485 0 10.924 5.517 10.924 13.587zm-16.932.138c0 6 1.912 8.965 5.8 8.965 4.027 0 5.939-2.9 5.939-9.035 0-6.068-1.978-9.174-5.8-9.174-4.024 0-5.936 2.966-5.936 9.244zm-9.858-60.35c26.6 0 48.233 21.86 48.233 48.727s-21.637 48.726-48.233 48.726-48.233-21.859-48.233-48.726S98.7 78.882 125.3 78.882m0-5.414c-29.6 0-53.592 24.24-53.592 54.141s23.994 54.14 53.592 54.14 53.593-24.239 53.593-54.14S154.9 73.468 125.3 73.468z"/><path fill="#bfc0c2" d="M337.593 1026.658l.2.3a35.8 35.8 0 0 0 27.735 13.058h105.78l-8.7-42.616h-50.716l-74.3 29.254zm282.924-2.025L584.278 997.3h-37.149l-5.568 42.615h70.756a9.828 9.828 0 0 0 9.819-9.819 8.893 8.893 0 0 0-1.619-5.463z"/><path fill="#003b6a" d="M611.087 998.323c0-211.358-60.026-321.895-59.52-341.331 2.834-106.286 5.466-132-12.856-200.729h-106.59c.608 13.463 2.835 42.818 11.844 64.784 9.11 22.169 19.941 62.557 29.963 103.351 15.285 62.962 28.14 126.936 28.14 126.936l42.413 246.989z"/><path fill="#bfc0c2" d="M417.09 325.3q-.406-.679-.848-1.362l-170.89-23.482-33.158-14.263-8.267 35.341c3.756 3.228 12.481 4.533 16.106 4.928 19.314 2.1 46.77 3.021 46.77 3.021l111.254 39 1.818.684a30.41 30.41 0 0 0 15.619 1.668c19.693-3.152 33.396-25.869 21.596-45.535z"/><path fill="#bfc0c2" d="M225.175 272.537l-8.151 4.952 21.075 27.169 35.373.586-48.297-32.707z"/><path fill="#002c50" d="M391.935 456.263l.4 16.2 6.782 261.667 9.718 264.2h75.817c-2.429-166.616-3.644-130.175-19.739-242.13-6.681-46.159-.3-90.192 8.908-131.795-9.92-40.794-20.751-81.183-29.862-103.351-9.008-21.966-11.236-51.321-11.843-64.784h-40.181z"/><path fill="#d0d4d8" d="M467.991 147.788a50.932 50.932 0 0 1-17.456 1.756c-.51 4.836-1.029 9.93-1.494 14.967a91.123 91.123 0 0 0 18.95-16.723z"/><path fill="#d0d4d8" d="M448.963 163.452c-1.814 14.869-4.955 33.639-4.955 33.639l60.545-4.92s-13.01-67.136-13.755-68.978c3.071-3.719 13.755-11.895 12.227-21.437-.644-4.024.642-6.644-1.831-9.228C495.629 86.71 487.7 79.921 483 86.979a100.585 100.585 0 0 1-1.737-16.859s-18.248.039-38.546-1.145c-20.156-1.175-17.983 16.979-24.54 14.8a163.817 163.817 0 0 0 2.969 24.87c.636 3.166 1.4 6.431 2.326 9.715 5.679 20.134 10.392 29.794 10.392 29.794a72.05 72.05 0 0 0 16.487 2.823 52.185 52.185 0 0 0 16.165-1.465 82.3 82.3 0 0 1-17.553 13.94z"/><path fill="#525f6b" d="M500.151 165.416l-39.487 11.792-14.972-11.792-41.7 25.205a62.516 62.516 0 0 0-29.963 58.508l3.847 26.824 13.665 94.14.81 39.983-.412 46.187h146.772l22.073-255.722z"/><path fill="#3e4750" d="M502.371 456.263h36.34l22.073-255.722-1.49.428L517.05 252.8z"/><path fill="#002c50" fill-rule="evenodd" d="M460.667 176.174l14.416 12.408-12.248 15.791 6.984 15.69-4.251 173.094-17.411 22.675-19.233-26.218 13.969-169.551 9.515-15.69L443.6 190.3z"/><path fill="#757f89" fill-rule="evenodd" d="M484.556 198.646s-17.816-13.463-23.889-22.472c-.4-.608 13.26-1.62 23.686-8.6 13.52-7.684 13.1-11.742 13.1-11.742l12.1 14.779s-18.018 19.536-25 28.039"/><path fill="#757f89" fill-rule="evenodd" d="M450.139 160.687c-.1 9.211 10.528 15.386 10.528 15.386l-18.322 22.472s-4.252-12.653-4.252-21.054 12.046-16.8 12.046-16.8"/><path fill="#525f6b" d="M506.359 80.992c-1.491-9.605-13.91-16.94-13.91-16.94s-.545-7.362-12.786-15.97-24.455-3.036-34.933-1.628c-22.625 3.038-30.473 17.8-30 25.274a9.584 9.584 0 0 1 .007 1.278c-.5 7.436 4.27 16.253 4.27 16.253a2.656 2.656 0 0 1 .2-2.358c1.955-2.711 5.892-7.852 8.816-9.6 4.041-2.417 6.371.581 18.148 2.88s22.689-6.976 22.689-6.976c-4.971 18.345 7.114 11.649 10.65 16.671.563.8 2.9 2.242 4.563 3.347L478.9 124.11s-1.831 2.529-7.063 1.915a98.652 98.652 0 0 0-29.754-5.987c-17.733-.818-17.288 2.677-17.288 2.677s-6.492 15.033 1.453 28.114c6.639 10.931 20.113 13.912 29.674 13.682 3.748-.09.58-2.2 4.551-6.8 2.653-3.073 17.762-2.344 22.606-9.921 3.227-5.05 1.533-12.232.119-18.059l-2.234-11.514c3.163-6.208 14.023-30.739 22.065-16.459 2.083-4.293 4.406-13.842 3.33-20.766zM459.224 130.6c0 5.981-22.487 17.189-33.3-3.96v-1.09c6.734 5.719 31.829 2.229 31.829 2.229 1.471 2.038 1.471 2.038 1.471 2.821z"/><path fill="#d0d4d8" d="M435.24 108.6l-8.468 11.656a3.151 3.151 0 0 0-.824 2.519 3.808 3.808 0 0 0 3.686 3.592c2.891.375 22.37-5.39 22.37-5.39l-9.08-4.5z"/><path fill="#525f6b" d="M310.448 253.308H202.962l34.612 130.34h106.409l-33.535-130.34z"/><path fill="#d0d4d8" d="M212.192 286.185l34.621 2.1c2.74 9.2-3.842 21.98-11.588 25.433-6.835 3.047-31.315 7.8-31.315 7.8z"/><path fill="#3e4750" d="M374.018 249.157l-5.541 68.963s16.98 10.094 16.854 9.226l-11.313-78.189z"/><path fill="#757f89" d="M608.012 388.043L576.5 224.968c-5.966-20.711-18.117-30.451-35.032-29.407-25.952 3.586-28.722 37.47-27.355 52.466 2.546 28.573 28.633 132.307 33.472 136.324 30.579 25.39 60.427 3.692 60.427 3.692z"/><path fill="#005691" d="M415.51 345.437l-5.946 1.992-13.692-40.877 5.946-1.992z"/><path fill="#003b6a" d="M402.412 304.362l-7.133 2.39-7.43-22.182 7.133-2.389zM409.562 347.433l5.946-1.991 1.352 5.959-4.787 1.603-2.511-5.571z"/><path fill="#005691" d="M394.386 282.384l-5.945 1.991-.746-6.362 3.455-1.157 3.236 5.528z"/><path fill="#2f353c" d="M390.593 277.042l-2.342.784.266-2.694.241-.08 1.835 1.99z"/><path fill="#002c50" d="M416.834 354.403l-3.157 1.06-.836-2.49 3.158-1.06zM408.843 347.67l-1.378.462-6.786-20.258 1.379-.462z"/><path fill="#d0d4d8" d="M524.473 347.6c-41.121-19.388-81.944-38.479-81.944-38.479L416.043 294.9l-16.567 37.481s28.336 3.723 30.427 5.215c53.774 39.689 145.2 119.472 178.108 50.273.298-.601-41.819-20.586-83.538-40.269z"/><path fill="#bfc0c2" d="M416.043 294.9l-48.535 8.332s.6 2.887 1.6 6.669c.4 1.393 9.658 4.076 10.057 5.569a85.535 85.535 0 0 0 3.389 9.654c3.289 6.966 16.926 7.257 16.926 7.257z"/></svg>